<?xml version="1.0" encoding="UTF-8"?>
<svg xmlns="http://www.w3.org/2000/svg" viewBox="0 0 128 128">
    <path fill="#b6cfff" d="M64 0C28.7 0 0 28.7 0 64s28.7 64 64 64 64-28.7 64-64S99.3 0 64 0zm32 88c0 4.4-3.6 8-8 8H40c-4.4 0-8-3.6-8-8V40c0-4.4 3.6-8 8-8h48c4.4 0 8 3.6 8 8v48zm-8-56H40c-4.4 0-8 3.6-8 8v48c0 4.4 3.6 8 8 8h48c4.4 0 8-3.6 8-8V40c0-4.4-3.6-8-8-8z"/>
    <path fill="#b6cfff" d="M84 36H44c-4.4 0-8 3.6-8 8v40c0 4.4 3.6 8 8 8h40c4.4 0 8-3.6 8-8V44c0-4.4-3.6-8-8-8zm-4 44H48V48h32v32z"/>
</svg>
