<?xml version="1.0" encoding="UTF-8"?>
<svg xmlns="http://www.w3.org/2000/svg" viewBox="0 0 128 128">
    <path fill="#b6cfff" d="M115.4 30.7L67.1 2.9c-.8-.5-1.9-.7-3.1-.7-1.2 0-2.3.3-3.1.7l-48 27.9c-1.7 1-2.9 3.5-2.9 5.4v55.7c0 1.1.2 2.4.9 3.4l-.2.1c.5.8 1.2 1.5 1.9 1.9l48.2 27.9c.8.5 1.9.7 3.1.7 1.2 0 2.3-.3 3.1-.7l48-27.9c1.7-1 2.9-3.5 2.9-5.4V36.1c.1-.8 0-1.7-.4-2.6l-.3-.2zm-69.3 77.9l-.1.1-.2.1-32.6-19v-7l19.5-11.3 13.3 7.7v29.4zm65.9-19.1L79.3 108l-.1.1-.2.1V78.8l13.3-7.7 19.5 11.3v7z"/>
    <path fill="#b6cfff" d="M64 41.1l-13.3 7.7v15.5L64 71.9l13.3-7.7V48.8L64 41.1zm0-15.5l13.3 7.7v15.5L64 56.4l-13.3-7.7V33.3L64 25.6z"/>
</svg>
