<?xml version="1.0" encoding="UTF-8"?>
<svg xmlns="http://www.w3.org/2000/svg" viewBox="0 0 128 128">
    <g fill="#b6cfff">
        <circle cx="64" cy="64" r="11.4"/>
        <path d="M107.3 45.2c-2.2-.8-4.5-1.6-6.9-2.3.6-2.4 1.1-4.8 1.5-7.1 2.1-13.2-.2-22.5-6.6-26.1-6.1-3.4-16.1-.8-26.2 6.8-2.1 1.6-4.1 3.3-6 5.2-1.3-1.3-2.7-2.6-4.1-3.8C48.7 7.8 38.9 3.7 32.6 7.2c-6.1 3.4-8.4 12.3-6.5 25 .4 2.8 1.1 5.6 1.9 8.4-2.7.8-5.3 1.7-7.8 2.6C8.2 47.4 0 54 0 61.6c0 7.8 8.7 14.5 20.9 18.9 2 .7 4 1.3 6.2 1.9-.8 3.1-1.4 6.3-1.8 9.4-1.8 12.3.5 21 6.6 24.4 6.3 3.5 16.7-.1 27-8.5 1.7-1.4 3.4-2.9 5.1-4.5 2.2 2.1 4.4 4.1 6.7 5.8 10 8.1 19.8 11.3 26 7.9 6.4-3.5 8.4-13.9 6.2-26.5-.4-2.3-.9-4.6-1.5-7 1.5-.4 2.9-.9 4.3-1.4 12.9-4.3 21.9-11.2 21.9-19.2 0-7.7-8.5-14.4-20.6-18.8zM69.8 14.5c8.4-6.5 16.3-9 20.2-6.8 4.2 2.3 5.8 10 4 20.8-.3 2-.7 4.1-1.2 6.1-4.6-1-9.4-1.8-14.4-2.3-3-4.2-6.1-8.1-9.4-11.7 0 0 0-.1.1-.1h-.1c1.3-1.4 2.8-2.9 4.3-4.3.5-.4.9-.8 1.3-1.2l-3.8 4.5zM39.1 40.9c1.2 2 2.4 4.1 3.6 6.1 1.3 2 2.6 4 3.9 6-3.8-.2-7.5-.3-11.1-.3-3.7 0-7.3.1-10.9.3 2.8-3.9 5.8-7.7 9-11.3l5.5-.8zm-5.5 24.4c-2-.2-3.9-.5-5.7-.7-2.9-.4-5.6-.9-8.2-1.6-2.4-.6-4.7-1.3-6.9-2.1-4.7-1.6-8.6-3.5-11.3-5.6-2.4-1.9-3.7-3.7-3.7-5.4 0-3.3 5-7.6 13.4-10.5 2.1-.7 4.3-1.4 6.6-2 3.5 11.2 8.3 22.1 14.2 32.2-.3-.4-.5-.7-.8-1.1l2.4-3.2zm-8.9-38.4c4.5-11.1 9.8-18.8 13.9-20.9 4.4-2.3 11.2.2 18.8 6.9 1.2 1.1 2.4 2.2 3.7 3.4-5.1 5.5-9.8 11.4-14.2 17.7-4.9.5-9.8 1.2-14.5 2.1-.4-1.7-.8-3.4-1.1-5.1-.7-3-1.2-6-1.6-8.8v4.7zm2.3 34.7c-.8-.1-1.5-.3-2.3-.4l1.2.1c.4.2.7.3 1.1.3zm11.6 27.9c-4.1 2.5-7.5 2.8-9.5 1.6-4.2-2.3-5.8-10.9-3.7-22 .3-1.8.7-3.6 1.2-5.4 4.8.9 9.8 1.6 14.9 2 3 4.1 6.2 8.1 9.5 11.8-1.1 1.1-2.3 2.1-3.4 3.1-.9.7-1.8 1.5-2.7 2.2l-6.3 6.7zm54.2-2.7c-4.2 2.5-10.7-.1-17.6-6.2-1.8-1.5-3.6-3.3-5.5-5.2 4.8-5.2 9.2-10.8 13.2-16.7 5.1-.4 10-.9 14.8-1.7.4 1.8.8 3.5 1.1 5.2 2.1 10.9.5 19-6 24.6zm8.6-36.1c-2.1.7-4.3 1.3-6.6 1.9-1.9-6.1-4.4-12.3-7.3-18.6 2.9-6.2 5.3-12.4 7.2-18.5 4 1.2 7.8 2.5 11.2 4.1 8.4 3.7 13.9 8.5 13.9 12.4 0 4.2-6 9.4-15.1 13.4-1 .4-2.2.8-3.3 1.2v4.1z"/>
    </g>
</svg>
