<?xml version="1.0" encoding="UTF-8"?>
<svg xmlns="http://www.w3.org/2000/svg" viewBox="0 0 128 128">
    <path fill="#b6cfff" d="M64 2C30.1 2 2.5 29.6 2.5 63.5S30.1 125 64 125s61.5-27.6 61.5-61.5S97.9 2 64 2zm0 96.9c-19.6 0-35.4-15.8-35.4-35.4S44.4 28.1 64 28.1s35.4 15.8 35.4 35.4S83.6 98.9 64 98.9z"/>
    <path fill="#b6cfff" d="M64 39.1c-13.6 0-24.4 10.8-24.4 24.4S50.4 87.9 64 87.9s24.4-10.8 24.4-24.4S77.6 39.1 64 39.1zm0 35.9c-6.3 0-11.5-5.2-11.5-11.5S57.7 52 64 52s11.5 5.2 11.5 11.5S70.3 75 64 75z"/>
</svg>
